<?xml version="1.0" encoding="UTF-8"?>
<!DOCTYPE svg PUBLIC "-//W3C//DTD SVG 1.1//EN" "http://www.w3.org/Graphics/SVG/1.1/DTD/svg11.dtd">
<!-- Creator: CorelDRAW 2017 -->
<svg xmlns="http://www.w3.org/2000/svg" xml:space="preserve" width="100%" height="100%" version="1.1" shape-rendering="geometricPrecision" text-rendering="geometricPrecision" image-rendering="optimizeQuality" fill-rule="evenodd" clip-rule="evenodd"
viewBox="0 0 27940000 21590000"
 xmlns:xlink="http://www.w3.org/1999/xlink">
 <g id="Capa_x0020_1">
  <metadata id="CorelCorpID_0Corel-Layer"/>
  <g id="Logo">
   <path fill="black" d="M6662170 1536610l15540450 -9520 9520 4268130c153510,528670 470640,944020 954040,1244270 -482820,300650 -783650,746920 -949260,1301370l20 4249110 -7738060 7761940 -1473870 -1486960 7157890 -7121440 1830 -3713130 -949270 -4750 2390 -1965160 944520 2370 -580 -2558160 -13384950 0 1950890 794640 -4750 1760550 4886720 0 -827920 1965160 -4049330 -4720 -4750 6594950 -2041280 -2031790 -4800 -4341970c-168430,-533930 -499930,-919550 -947480,-1199700 457950,-280530 780780,-672710 946900,-1194320l-2640 -4310920 -16130 0 -100 50z"/>
   <path fill="black" d="M14829470 5309930l4049290 0 4750 7013680 -6208330 6221420 -3717420 -3694840 6658010 -4484680 -8320 -1598780 -2326790 0 1548810 -3456800zm109440 1541610l2498080 4750 0 1860470c151420,69640 230810,182540 223650,347360 -300,173150 -85340,297910 -218870,394940l-4750 1760550 -5319700 4558410 -242670 -233140 5229310 -4496530 4740 -1598790c-171890,-71280 -238870,-206290 -233140,-385420 9950,-164180 89940,-278320 233140,-347360l-4740 -1497660 -2169770 9520 4750 -377080 -30 -20z"/>
  </g>
 </g>
</svg>
